<svg xmlns="http://www.w3.org/2000/svg" width="612" height="408"><path fill="#fdd14e" d="m357 36 3.44.96C375.74 41.46 391.05 47.5 404 57v2l1.75.75A22 22 0 0 1 412 65v2h2c6.87 10.3 6.74 19.28 6.38 31.25l-.09 5.18q-.1 6.3-.29 12.57l3.4.15c15.5.73 15.5.73 22.6 2.91l2.23.66c14.13 4.38 26.1 11.3 37.77 20.28l2.39 1.67L490 143v2l4 2v2l1.68.61c3.23 1.93 5.25 4.64 7.5 7.58l1.47 1.89c20.86 27.58 29.77 60.6 26.35 94.92l-.34 3.67c-2.8 23.8-13.64 45.94-28.66 64.33l-1.7 2.13A74 74 0 0 1 482 340l2.12 1.2q1.35.8 2.75 1.61l2.75 1.58C492 346 492 346 494 349c0 3.98-.63 5.6-3.31 8.56-30.19 22.27-86.93 18.15-122.1 13.21-15.38-2.36-31.14-5.34-44.87-13.05-4.12-1.1-7.3.2-11.28 1.47l-4.5 1.35-2.39.72c-59.74 17.34-140.75 16.88-196.74-12.32l-1.85-.96c-6.3-3.43-11.36-8.22-13.96-14.98-.72-4.1-.18-7.49 1.19-11.44C96 319 96 319 98.6 318.34L101 318l-.01-1.81a5221 5221 0 0 1-.14-25.73q-.04-5.02-.05-10.06l-.03-3.14c0-7.35.4-13.55 5.17-19.51l1.52-1.95A46 46 0 0 1 112 251h2l1-3c5.03-4.04 10.36-6.86 16.19-9.56l2.51-1.18A140 140 0 0 1 153 230q.33-5.5.5-11l.2-3.12c.2-5.96.2-5.96-2.41-11.13-2.08-2-2.08-2-4.26-3.64-5.47-5.7-5.49-12.98-5.46-20.42l-.02-2.93v-6.1q0-4.63-.05-9.26v-5.96l-.03-2.76c.09-8.24 2.5-15.12 8.22-21.18l1.82-1.97q1.24-1.28 2.49-2.53.15-2.15.16-4.3l.03-2.77.02-3.03.09-6.3.1-9.97.12-9.6.01-2.98C154.72 78.7 158.18 70.82 165 63c11.81-11.05 27.55-19.38 43-24l3.1-.98C256.82 24.24 310.9 22.64 357 36"/><path fill="#fba308" d="m156 92 .9 1.83c10.95 21.52 33.22 30.26 54.86 37.44 9.5 3 19.08 4.89 28.92 6.38q3.02.46 6.02 1c25.8 4.4 66.51 7.7 91.3-2.65 3.28-.51 6.55-.88 9.84-1.24 3.65-.88 5.36-2.31 8.16-4.76 5.53-3.13 10.7-4.54 17-5a35 35 0 0 1-8.75 5.81c-4.11 1.97-7.48 4.53-11.01 7.4a156 156 0 0 1-6.55 4.91A36 36 0 0 0 339 151l-2.5 2.44c-2.6 2.66-4.45 5.46-6.5 8.56l-1.92 1.76c-2.57 2.77-3.81 5.54-5.33 8.99l-1.58 3.55L320 179h-2l-.33 1.65a127 127 0 0 1-5.46 18.46c-4.1 11.33-4.54 22.99-4.47 34.9q.01 3.37-.01 6.75c-.01 7.33.26 14.14 2.27 21.24l.71 2.9c6.03 22.47 16.76 41.83 32.29 59.1l2.21 2.47c17.26 18.22 43.05 30.53 68.19 31.69q5.17.06 10.35-.04l3.6-.02 8.65-.1c-18.7 9.8-46.1 5.77-65.69.31a102 102 0 0 1-31.7-17.25c-2.38-1.84-3.97-3.05-7.02-3.1a85 85 0 0 0-10.28 5.23C300.9 354.34 277.87 358.28 255 361l-2.33.3c-9.95 1.08-19.98.99-29.98 1.01l-3.02.01c-17.21 0-33.73-1.13-50.67-4.32l-2.62-.49c-18-3.46-34.63-10.2-50.38-19.51v-2l-1.74-.2c-3.17-1.12-4.35-2.97-6.39-5.61l-2.07-2.65c-5.1-7.18-4.96-14.4-4.97-22.94v-3.02l-.02-6.3-.03-9.6-.01-6.14-.02-2.89c.02-7.11.6-13.15 5.19-18.9l1.52-1.95A46 46 0 0 1 112 251h2l1-3c5.03-4.04 10.36-6.86 16.19-9.56l2.51-1.18A140 140 0 0 1 153 230q.33-5.5.5-11l.2-3.12c.18-6 .18-6-2.45-11.24-2.1-2.09-2.1-2.09-4.32-3.82-2.8-2.64-3.78-4.96-4.1-8.8q-.08-3.64-.03-7.26l.01-2.67.06-8.4q.02-2.85.03-5.72.04-6.98.1-13.97c2 3 2 3 3.75 6.25 11.58 19.9 37.1 26.86 58.03 32.44 29.03 7.43 57.43 7.59 87.22 7.31l.62-2.08.82-2.73.8-2.71q.84-2.75 1.76-5.48l-3.15.05c-21.14.29-41.9.3-62.85-3.05l-2.67-.42c-24.08-4-49.79-13.32-65.5-32.76-4.94-7.63-6.41-13.93-6.22-22.98l.02-3.12q.04-4.89.12-9.78l.05-6.67q.08-8.14.2-16.27"/><path fill="#fba306" d="M468.87 157.94c2.5 1.91 4.81 3.93 7.13 6.06l2.88 2.54c12.43 11.33 20.19 25.51 25.12 41.46l1.02 2.33c8.84 24.05 3.6 51.81-6.44 74.47a74 74 0 0 1-6.26 10.36c-1.47 2-1.47 2-3.07 4.9L488 302h-2l-.7 1.69c-1.65 2.93-3.72 4.95-6.11 7.31l-2.58 2.56c-16.77 15.69-38.69 21.35-61.11 20.8-10.93-.53-21.83-3.16-31.5-8.36l-2.98-1.59A573 573 0 0 1 373 320v-2l-2.69-.69c-3.89-1.54-5.5-3.22-8.31-6.31l-4.12-4.06A51 51 0 0 1 351 299v-2l-3-1c-1.74-2.47-3.3-4.9-4.81-7.5-.67-1.13-.67-1.13-1.34-2.3A105 105 0 0 1 332 208c4.76-15.88 12.25-29.21 24-41l2.56-2.6c30.07-29.6 76.68-29.18 110.3-6.46"/><path fill="#fca608" d="M288.31 43.69h2.57c13.25.05 26.1.7 39.12 3.31l2.76.52c19.87 3.8 43.07 9.83 55.24 27.48a20.4 20.4 0 0 1 3 14c-3.79 11.39-13.82 17.7-24 23-24.65 11.58-50.92 14.55-77.9 14.34q-4.8-.03-9.57-.02c-10.7-.01-20.99-.35-31.53-2.32l-4.73-.78-3.9-.72-2.01-.36A31 31 0 0 1 228 119c-2.28-.57-4.57-1-6.88-1.44C219 117 219 117 216 115l-2.81-.92c-11.78-4-21.04-11.38-27.19-22.08-1.63-4.89-1.64-9.15.44-13.87C194.62 63.4 211.46 55.52 227 51q5.63-1.49 11.31-2.75l2.65-.6c15.62-3.28 31.45-4.03 47.35-3.96"/><path fill="#fdd14e" d="m357 36 3.44.96C375.74 41.46 391.05 47.5 404 57v2l1.75.75A22 22 0 0 1 412 65v2h2c4.85 8.4 7.82 14.91 5.34 24.55A58 58 0 0 1 416 100h-2l-.56 2.06c-3.43 7-9.82 11.2-16.44 14.94l1 2h-3v2a45 45 0 0 1-10.81 3.13l-2.96.5-2.23.37-1 3c-2.08.85-2.08.85-4.81 1.63-6.17 2.05-10.67 5.43-15.66 9.44C355 141 355 141 352 142v2l-3 2-2.06 2.13C345 150 345 150 343 150v2l-3 1c-1.22 1.63-1.22 1.63-2.19 3.56L336 160h-2l-.37 1.88C333 164 333 164 331 166a201 201 0 0 0-3 6h-2l-.87 3.31C324 179 324 179 322 182h-3c.63-4.44 2.32-8.16 4.31-12.12l.9-1.88c1.8-3.63 3.46-5.74 6.79-8q1.46-2.6 2.87-5.23c1.83-2.86 4.49-4.68 7.13-6.77l1.75-2.33c2.73-3.24 5.72-5.4 9.19-7.8l1.84-1.3c3.33-2.33 6.71-4.5 10.22-6.57q3-1.99 6-4c-6.88 2.1-13.48 4.5-19.37 8.69-3.38 1.69-6.4 1.8-10.13 2-2.53.2-2.53.2-4.8 1.28-18.49 7.08-44.17 4.47-63.7 4.03l-2.48-.03c-9.66-.13-19.13-1.74-28.64-3.28l-3.8-.61A193 193 0 0 1 212 132l-2.73-.85C188.79 124.61 170.78 116.08 158 98l-1-2q-.18 8.91-.27 17.82l-.1 6.05c-.3 14.18.03 24.07 10.23 34.75C168 156 168 156 168 158l1.8.84c2.08 1.1 3.6 2.27 5.39 3.78 6.57 5 14.27 8.13 21.81 11.38l3.34 1.45C230.48 187.28 264.17 186.4 296 187c-.62 3.2-1.31 6.2-2.44 9.25l-.74 2.08C292 200 292 200 290 201q-3.88.18-7.78.2l-2.39.02c-41.8.3-93.6-2.3-126.83-31.22-7.3-7.9-7.3-7.9-9-13l-1 34h-1q-.15-9.37-.22-18.73l-.08-6.36a897 897 0 0 1-.1-9.19l-.05-2.84c0-8.35 2.33-15.23 8.14-21.38l1.82-1.97q1.24-1.28 2.49-2.53.15-2.15.16-4.3l.03-2.77.02-3.03.09-6.3.1-9.97.12-9.6.01-2.98C154.72 78.7 158.18 70.82 165 63c11.81-11.05 27.55-19.38 43-24l3.1-.98C256.82 24.24 310.9 22.64 357 36M236.75 48.75l-3.35.8c-17.5 4.3-36.33 11.47-46.62 27.33-1.95 4.04-2.32 7.71-1.78 12.12 1.92 5.38 4.7 9.21 9 13l2.63 2.38c6.46 5.26 13.19 9.78 21.37 11.62l1.94 1c3.2 1.55 6.62 2.2 10.06 3l3.63.94q5.6 1.37 11.25 2.62l3.36.76c8.19 1.49 16.34 1.85 24.65 1.88l3.08.02 6.46.02q4.8.02 9.62.07c20.7.1 42.2-1.08 61.47-9.3 2.54-1.04 5.11-1.86 7.73-2.7 10.76-3.9 21.26-10.75 27.75-20.31 2.3-5 3-9.03 1.2-14.4-4.86-10.9-13.76-16.57-24.2-21.6l-3.04-1.53C352.4 51.52 341.4 49.18 330 47l-2.51-.5c-13-2.54-25.98-2.78-39.18-2.81l-2.47-.01c-16.6-.04-32.91 1.17-49.09 5.07"/><path fill="#f99d05" d="M156 217c3.94 4.73 3.94 4.73 4.5 7.19l.5 1.81 1.73.85c2.78 1.41 4.76 3.26 7.08 5.34 6.47 5.4 13.47 8.56 21.19 11.81l3.34 1.51c30.5 12.41 64.3 12.71 96.66 12.49l.58 2.23 3.58 13.65c1.66 6.24 3.5 12.2 6.1 18.12.74 2 .74 2 .74 5-23.28 9.36-49.7 11.23-74.56 11.25h-2.46C197 308.23 168.03 305.52 143 292v-2l-2.06-.06c-5.45-1.74-8.75-6.23-11.94-10.81-1.76-5.51-1-10.13 1.56-15.25A58 58 0 0 1 152 248h3l-.04-3.48c-.06-9.24.13-18.32 1.04-27.52"/><path fill="#f99e07" d="M102 283a99 99 0 0 1 7.19 7.81c15.7 17.78 42.08 24.12 64.56 28.5l2.28.45c15.68 2.8 31.38 3.6 47.28 3.56q4.48 0 8.98.04c17.72.06 34.95-2.03 52.27-5.8q1.5-.3 3.02-.64c6.5-1.4 12.83-3.07 19.13-5.22 2.29-.7 2.29-.7 5.29-.7a20 20 0 0 1 2.5 3.81A29 29 0 0 0 320 322q1.83 1.99 3.63 4l1.85 2.06C327 330 327 330 328 333c2 1.2 2 1.2 4 2-1.15 3.45-1.57 3.62-4.62 5.27l-2.3 1.25q-1.25.63-2.52 1.3l-2.59 1.34C299.7 354.39 277.37 358.34 255 361l-2.33.3c-9.95 1.08-19.98.99-29.98 1.01l-3.02.01c-17.21 0-33.73-1.13-50.67-4.32l-2.62-.49c-18-3.46-34.63-10.2-50.38-19.51v-2l-1.74-.2c-3.17-1.12-4.35-2.97-6.39-5.61l-2.07-2.65c-4.6-6.5-4.98-12.63-4.92-20.48v-2.22c.06-7.3.53-14.56 1.12-21.84"/><path fill="#f99e06" d="m156 92 .9 1.83c10.95 21.52 33.22 30.26 54.86 37.44 9.5 3 19.08 4.89 28.92 6.38q3.02.46 6.02 1c27.33 4.67 55.97 3.1 83.35-.29q5.98-.72 11.95-1.36a85 85 0 0 1-9.87 8.88C324.1 151.8 324.1 151.8 319 160h-3l-.69 2.63c-1.24 3.2-2.6 4.94-4.87 7.45-3.16 4.2-5.2 9.17-7.44 13.92h-2l-2 6-1-4-1.84.03q-9.69.13-19.38.19l-7.17.08c-34.23.5-75-4-101.61-28.3-8.68-9.28-12.66-17.44-12.4-30.16q.02-1.54.03-3.12.04-4.89.12-9.78l.05-6.67q.08-8.14.2-16.27"/><path fill="#fdd04b" d="m393.27 176.84 2.75-.03 3-.01 28.7-.17c11.07.04 20.75 3.17 29.28 10.37 7.07 8.64 10.58 17.6 10.5 28.69l-.02 2.65c-.26 9.8-2.8 19.01-9.83 26.24-10.09 8.68-20.82 9.88-33.78 9.6l-3.76-.03q-4.56-.06-9.11-.15l.08 3.44q.13 6.31.2 12.63.03 2.74.1 5.47.09 3.93.1 7.85l.09 2.48c0 2.3 0 2.3-.57 6.13-3.93 3.45-7.97 3.49-13 3.44l-2.12.06c-3.28 0-5.65-.38-8.58-1.89-3.52-4-2.98-7.74-2.92-12.9l-.01-3.17q-.01-5.19.04-10.38v-7.21q0-7.56.05-15.12.05-9.69.03-19.38a3670 3670 0 0 1 .04-22.04q0-5 .05-10v-2.98c.08-6.86.72-13.52 8.69-13.6"/><path fill="#f99e06" d="M143 154c2 3 2 3 3.75 6.25 11.58 19.9 37.1 26.86 58.03 32.44 22.08 5.65 43.93 7.44 66.65 7.97l3.84.1 3.42.07c3.31.17 3.31.17 7.02.74 3.7.48 5.87-.15 9.29-1.57a65 65 0 0 1-1.7 9.59c-2.87 10.68-3.03 21.4-3.3 32.41-36.79.65-71.5-2.26-106.02-16.22q-2.07-.81-4.16-1.54c-3.7-1.3-6.17-2.4-8.82-5.24a86 86 0 0 0-4-2.62l-2.06-1.3c-2.05-1.22-2.05-1.22-4.94-2.08-4-4.34-4-4.34-4-8l-2.12.38c-3.73-.5-4.99-1.97-7.55-4.58-3.74-5.06-3.6-10-3.53-16.04l.01-2.67.06-8.4q.02-2.85.03-5.72.04-6.98.1-13.97"/><path fill="#fce7c3" d="M101 315h1l.63 3.5c1.25 5.1 4.08 8.51 7.37 12.5l1.5 2.17c1.46 2.11 1.46 2.11 4.5 2.83v2l1.68.32c2.76.8 4.95 2.06 7.44 3.5A113 113 0 0 0 141 349l3 1.21c9.56 3.71 19.18 5.68 29.27 7.34q2.6.42 5.2.91c29.27 5.49 62.24 4.55 91.53-.46l2.72-.45q8.7-1.5 17.28-3.55l2.16-.5c13.52-3.27 27.24-8.77 38.84-16.5 3.15.36 5.22 1.65 7.77 3.48l2.17 1.52 2.31 1.63c18.34 12.47 38.31 18.54 60.56 18.5h3.83c9.77-.21 18.91-1.45 28.36-3.94l3.2-.83q4.4-1.16 8.8-2.36l3.62-.97c8.39-2.51 15.93-6.81 23.56-11.04L477 342l2.08-1.17c1.92-.83 1.92-.83 4.4-.07l2.58 1.37 2.6 1.32A15.4 15.4 0 0 1 494 349c.09 4.02-.61 5.57-3.31 8.56-30.19 22.27-86.93 18.15-122.1 13.21-15.38-2.36-31.14-5.34-44.87-13.05-4.12-1.1-7.3.2-11.28 1.47l-4.5 1.35-2.39.72c-59.74 17.34-140.75 16.88-196.74-12.32l-1.85-.96c-6.3-3.43-11.36-8.22-13.96-14.98-.72-4.1-.18-7.49 1.19-11.44C96 319 96 319 98.69 318.12L101 318z"/><path fill="#fdd04c" d="M154 207h1v41l-16 8c-5.48 4.53-9.43 8.72-10.23 16.13.12 6.19 2.93 9.59 7.03 14.02A20 20 0 0 0 143 290v2l2.75.69c3.4.96 6.57 2.27 9.81 3.69 13.47 5.65 27.01 7.95 41.44 9.62l2.48.3c8.65.9 17.33.94 26.02.95h2.45c18.04 0 35.96-.94 53.48-5.59 5.9-1.52 11.51-1.77 17.57-1.66v2h2v3h2c1.26 2.9 2 4.8 2 8a236 236 0 0 1-27.5 7.19l-2.4.47c-15.17 2.79-30.02 3.66-45.42 3.6l-9.13.01c-16.45.02-32.6-1.11-48.74-4.4l-3.14-.63c-24.71-5.3-51-13.25-65.67-35.24l-1 14h-1a1860 1860 0 0 1-.15-16.08l-.05-5.9-.03-3.56c.37-5.62 1.64-10.3 5.17-14.71l1.52-1.95A46 46 0 0 1 112 251h2l1-3c5.03-4.04 10.36-6.86 16.19-9.56l2.51-1.18A143 143 0 0 1 153 230z"/><path fill="#fed04a" d="m262.1 59.85 5.37-.02h2.88l6.05-.02 9.18-.03 5.89-.01 2.74-.02c11.94.04 23.45 2.4 32.41 10.76 2.56 2.76 3.36 4.87 3.4 8.63-.33 5.25-1.3 7.95-5.02 11.86-2.7 1.73-2.7 1.73-5.69 3.19l-2.95 1.48c-8.77 3.47-17.05 3.58-26.42 3.45l-3.78-.02L277 99l.04 3.25.02 4.19.03 2.14q0 2.7-.09 5.42c-1.56 1.56-3.06 1.13-5.22 1.13h-12.94C257 115 257 115 256 114q-.14-2.49-.11-4.98v-3.21l.01-3.5v-3.56l.05-18.96L256 61c2.28-1.14 3.57-1.13 6.1-1.15"/><path fill="#fca608" d="m155 255 .48 1.98c1.57 5.88 3.2 9.7 7.52 14.02l2 1v2c2.33 1.2 4.5 2.17 7 3v2l2.57.8a90 90 0 0 1 10.24 4.51c7.54 3.63 15.21 6.05 23.28 8.18q2.48.66 4.95 1.38c23.08 6.3 47.23 6.36 70.96 7.13-2.75 2.75-5.68 2.9-9.37 3.5l-2.32.38q-3.65.59-7.31 1.12l-2.16.33c-38.4 5.59-85.11 4.42-119.84-14.33v-2l-2.06-.06c-5.49-1.75-8.87-6.25-11.88-11-1.15-3.18-1.3-5.59-1.06-8.94l1 3c2.88-2.66 2.88-2.66 4.91-5.95C137.38 260.54 147.75 255 155 255"/><path fill="#ea8d04" d="M468.87 157.94c2.5 1.91 4.81 3.93 7.13 6.06l2.88 2.54c12.43 11.33 20.19 25.51 25.12 41.46l1.02 2.33c8.84 24.05 3.6 51.81-6.44 74.47a74 74 0 0 1-6.26 10.36c-1.47 2-1.47 2-3.07 4.9L488 302h-2l-.7 1.69c-1.65 2.93-3.72 4.95-6.11 7.31l-2.58 2.56c-18.06 16.9-40.45 21.01-64.25 20.6-2.52-.17-4.9-.61-7.36-1.16v-1l3.26.07c9.1.14 17.79-.18 26.74-2.07l2.46-.52c20.6-5.3 37.73-18.63 48.8-36.53 9.58-16.22 15.16-33.3 15.05-52.26l-.01-3.04c-.12-7.9-1-15.05-3.3-22.65l-.8-2.73c-3.59-10.78-8.81-22.16-16.17-30.89C480 180 480 180 480 178h-2l-.75-2.37c-1.49-3.13-2.24-3.2-5.25-4.63q-2.2-1.61-4.31-3.31l-2.4-1.89L463 164c-15.66-12.27-37.83-16.72-57.42-14.76-18 2.67-31.96 9.92-45.58 21.76h-2l-.8 1.75a36 36 0 0 1-4.32 6.19c-13.67 17.39-21.09 37.42-21.07 59.56v2.33c.07 7.81 1.01 15.45 2.19 23.17-6.29-6.29-5.22-20.71-5.25-29.06.03-25.9 8.88-49.5 27.25-67.94l2.56-2.6c30.07-29.6 76.68-29.18 110.3-6.46"/><path fill="#fdcf49" d="M157 216c4.6.57 8.05 2.57 11.94 4.94A59 59 0 0 0 182 227a293 293 0 0 1 8.8 4.56c3 1.35 5.9 2.21 9.1 2.95q3.15.76 6.26 1.67c26.41 7.66 52.5 9.2 79.84 9.82 1.36 2.73.88 4.61.56 7.63l-.3 3.03L286 259c-26.85.49-54.26-.8-80-9l-5.12-1.44c-15.92-4.83-32.98-13.12-42.7-27.18C157 219 157 219 157 216"/><path fill="#eb8d04" d="M288.31 43.69h2.57c13.25.05 26.1.7 39.12 3.31l2.76.52c19.87 3.8 43.07 9.83 55.24 27.48 2.72 4.54 3.52 8.7 3 14l-2 2-3-11h-2l-1.62-2.75c-2.5-4.03-6.1-5.49-10.38-7.25v-2h-3l-1-2c-5.06-2.78-10.45-4.52-16-6l-2.75-.9a133 133 0 0 0-23.37-5.29l-3.58-.5c-39.9-5.43-91.3-4.6-124.8 20.63-5.42 4.55-9.82 9.77-10.5 17.06-2-2-2-2-2.37-5.12.89-9.22 6.46-15.1 13.37-20.88 12.24-8.98 25.66-13.46 40.31-16.75l2.65-.6c15.62-3.28 31.45-4.03 47.35-3.96"/><path fill="#fbb319" d="m373 126-2.53 1.29c-6.2 3.23-11.98 6.56-17.4 11.02-2.08 1.7-4.21 3.25-6.38 4.81A36 36 0 0 0 339 151l-2.5 2.44c-2.6 2.66-4.45 5.46-6.5 8.56l-1.92 1.76c-2.57 2.77-3.81 5.54-5.33 8.99l-1.58 3.55L320 179h-2l-.33 1.65a127 127 0 0 1-5.46 18.46c-4.04 11.19-4.54 22.91-4.83 34.7l-.12 3.87q-.14 4.65-.26 9.32h-1q-.59-6.24-1.12-12.5l-.34-3.55c-.56-6.56-.52-11.68 1.46-17.95v-3h-2l1 4c-4.41 1.47-7.48 2.37-12 1-.08-4.83.05-9.24 1-14l-2.62 1.06c-3.63 1-5.77.8-9.38-.06v-1l10-1 1.44-4.81q1.21-4.12 2.56-8.19h-39v-1a2964 2964 0 0 1 20.81-.72q3.8-.15 7.6-.26l2.38-.1c4.22-.1 7.42.15 11.21 2.08l2-3h2l.32-1.65c.83-2.88 2.12-5.28 3.56-7.91l1.55-2.88A26 26 0 0 1 313 166q1.58-2.96 3-6h3l.23-1.7c2.93-8.72 14.5-15.36 21.77-20.3h-5c3.2-3.2 7.35-2.77 11.74-3.24 3.73-.87 5.4-2.27 8.26-4.76 11.08-5.97 11.08-5.97 17-4"/><path fill="#e68602" d="m155 248 .45 1.69c3.16 10.77 8.63 15.84 18.14 21.65L176 273v2l2.63.86q4.72 1.61 9.37 3.45l3.5 1.33q3.27 1.27 6.5 2.62c12.18 4.84 25.12 6.7 38 8.74l2.54.41c18.88 2.91 38.41 1.77 57.46 1.59l-1.25-3.23-1.63-4.29-.82-2.12c-3.07-8.08-5.6-16.64-5.3-25.36h4l.58 2.14 3.58 13.1c1.69 6.1 3.57 11.94 6.1 17.74.74 2.02.74 2.02.74 5.02-9.32 4.47-18.12 4.5-28.19 4.31l-4.5-.03c-13.68-.1-27.36-.62-40.87-2.9l-3.04-.52a195 195 0 0 1-21.78-5.3l-2.78-.83a95 95 0 0 1-15.65-6.6c-3-1.55-6.08-2.82-9.19-4.13q-2.01-.97-4-2v-2l-1.81-.37C168 276 168 276 165 274v-2l-1.69-.56c-3.99-2.48-6.74-6.07-7.85-10.68A81 81 0 0 1 155 255q-3.1 1.36-6.19 2.75l-3.48 1.55A45 45 0 0 0 137 265h-2l-.87 2.31C133 270 133 270 131 273h-2c-.51-5.37.61-7.85 4-12 5.46-5.66 13.81-13 22-13"/><path fill="#eb8c04" d="M384 179h2l-.01 1.74q-.14 20.96-.2 41.91-.03 10.14-.1 20.27-.06 9.77-.07 19.55 0 3.74-.04 7.47-.04 5.22-.03 10.44l-.05 3.14.02 2.87-.01 2.5c.33 2.27.33 2.27 2.29 3.88 3.27 1.83 6.49 1.63 10.14 1.54l2.13.01c4.34-.04 6.77-.66 10.93-2.32v-38c12.88-.31 12.88-.31 16.87-.39 11.03-.34 20.64-2.16 29.13-9.61 7.4-8.44 10.52-18.96 11-30h1c.55 16.9.55 16.9-3 24l-.8 1.93c-3.44 7.82-8.71 14.28-16.45 18.07-10.8 4-23.5 3.69-34.75 2l.03 2.73a2223 2223 0 0 1 .12 14.5q.04 3.15.05 6.3l.03 3.83c-.3 4.64-.74 9.08-4.04 12.53-6.8 3.44-16.92 2.7-24.19 1.11-3.36-2.32-4.23-4.1-5-8a81 81 0 0 1-.14-4.59l-.02-2.77v-3.02l-.02-3.2-.04-17.76-.02-15.26q0-9.78-.06-19.56-.02-7.51-.02-15.03l-.03-7.22v-10.08q-.02-1.49-.03-3.02c.05-8.66.05-8.66 3.38-12.49"/><path fill="#fba307" d="m410 199 12.19-.19 3.81-.08 3.04-.02 3.1-.05c3.32.4 5.2 1.34 7.86 3.34v2h2c2.76 5.4 3.95 9.93 3 16a16.4 16.4 0 0 1-6.34 8.68c-5.49 1.98-10.76 1.63-16.54 1.5L410 230z"/><path fill="#e48301" d="M167 147a53 53 0 0 1 5 3v2l1.75.35c2.43.7 4.1 1.69 6.19 3.09A46 46 0 0 0 189 160l2.02 1.34C223.9 179.64 267.6 178.51 304 179l-1 5c-50.56.85-50.56.85-73-4l-2.73-.57c-15.52-3.29-31.78-7.87-45.27-16.43l-2.06-1.14c-5.27-3-9.54-6.79-12.94-11.86z"/><path fill="#fdd75d" d="m393.27 176.84 2.75-.03 3-.01 28.7-.17c9.12.03 16.97 1.8 24.28 7.37l-2 1-3.31-1.31c-11.18-4.36-21.93-3.54-33.69-2.69h-23v110l-2 1-3-1q-.1-21-.16-41.99-.01-9.75-.07-19.49-.05-9.4-.05-18.81l-.04-7.18q-.02-5.02-.02-10.05l-.03-3c.03-6.88.64-13.57 8.64-13.64"/><path fill="#e48301" d="M294 200c1.57 4 .33 6.88-.87 10.88-2.87 10.2-2.96 20.58-3.13 31.12-36.94.65-73.75-1.5-108-17l-1-2c3.6.68 7.1 1.54 10.61 2.52 18.03 5.01 18.03 5.01 36.39 8.48l2.01.3c18.16 2.68 36.68 1.89 54.99 1.7l.38-3.21c.86-7.06 1.72-14.07 3.18-21.04l.76-3.64.68-3.11.4-2.36.6-1.64z"/><path fill="#e78c05" d="M254 64h1l.03 1.85.47 26.14.18 10.2.05 3.23.06 2.97.05 2.63c-.06 1.98-.06 1.98 1.16 2.98q2.13.12 4.25.1l2.6-.01 2.71-.03 2.73-.01L276 114l1-15 5.48-.11 7.27-.2 3.6-.07c11.83-.36 23.2-1.98 32.65-9.62 2.07-2.97 2.07-2.97 3-6a203 203 0 0 1 2-4c.62 4.97.57 8.92-2.25 13.19-6.05 7.17-15.67 10.55-24.75 11.81-4.36.22-8.7.19-13.06.13l-3.5-.03-8.44-.1.1 3 .09 3.88.1 3.86L279 118c-3.2 2.14-4 2.24-7.67 2.2l-2.7-.02-2.82-.06-2.85-.02-6.96-.1c-1.88-3.2-2.24-5.53-2.23-9.23v-3.15l.03-3.39.01-3.48.06-11 .03-7.46q.04-9.15.1-18.29"/><path fill="#fba408" d="M277 72q5.81-.12 11.63-.19l3.31-.07c10.17-.1 10.17-.1 15.06 3.26 2 2 2 2 2 5.44-1 3.56-1 3.56-3.26 5.27-5.53 1.9-10.8 1.6-16.62 1.48l-3.53-.04L277 87z"/><path fill="#eb8b03" d="m410 199 12.19-.19 3.81-.08 3.04-.02 3.1-.05c3.32.4 5.2 1.34 7.86 3.34v2h2c2.75 5.4 3.88 9.93 3 16-1.5 3.06-1.5 3.06-3 5-1.18-3.55-1.17-6.71-1.23-10.43-.9-3.03-2.27-4.68-4.78-6.58-4.04-2-8.44-1.77-12.87-1.8L413 206v24h-3z"/><path fill="#f39b0a" d="M379 351c5.48.77 10.84 2.63 16.14 4.18 9.54 2.72 18.49 2.95 28.36 2.88L436 358c-14.64 7.67-34.5 6.07-50.37 3.63l-2.51-.39c-5.86-.98-5.86-.98-8.12-3.24l3-1-.06-2.44C378 352 378 352 379 351"/><path fill="#fedb62" d="m379 125-1 3c-2.08.85-2.08.85-4.81 1.63-6.17 2.05-10.67 5.43-15.66 9.44C355 141 355 141 352 142v2l-3 2-2.06 2.13C345 150 345 150 343 150v2l-3 1c-1.22 1.63-1.22 1.63-2.19 3.56L336 160h-2l-.37 1.88C333 164 333 164 331 166a201 201 0 0 0-3 6h-2l-.87 3.31C324 179 324 179 322 182h-3c.63-4.44 2.32-8.16 4.31-12.12l.9-1.88c1.8-3.63 3.46-5.74 6.79-8q1.46-2.6 2.87-5.23c1.83-2.86 4.49-4.68 7.13-6.77l1.75-2.33c2.73-3.24 5.72-5.4 9.19-7.8l1.84-1.3c4.9-3.43 9.92-6.5 15.22-9.26l2.5-1.32c2.7-1.07 4.63-1.18 7.5-.99"/><path fill="#ed8e03" d="M312 311a20 20 0 0 1 2.5 3.81A29 29 0 0 0 320 322q1.83 1.99 3.63 4l1.85 2.06C327 330 327 330 328 333c2 1.2 2 1.2 4 2-1 3-1 3-2.85 4.17l-2.21 1.02-2.23 1.04-1.71.77a542 542 0 0 1-14.34-22.29q-1.77-2.88-3.66-5.71c1.6-3.2 3.64-3 7-3"/><path fill="#f79d07" d="M419 89h1v28l-24 1a56 56 0 0 1 7.94-6.87c4.19-3.09 7.7-6.41 10.06-11.13h2l.4-2.15.54-2.79.52-2.77C418 90 418 90 419 89"/><path fill="#f2af2e" d="M152 205h4l1 5 3 1v2q1.08.14 2.2.32c3.06.74 5.01 1.86 7.61 3.62l2.4 1.59L174 220v2l2.88.13c4.57.62 7.96 2.94 11.79 5.4A60 60 0 0 0 195 231v2l1.94-.75c3.98-.33 6.29.98 9.83 2.7A60 60 0 0 0 215 238c-3.42 1.14-4.24.84-7.56-.25-3.95-1.28-3.95-1.28-7.93-2.41-5.81-1.55-10.69-3.89-15.87-6.94-2.61-1.48-2.61-1.48-5.52-2.33-4.4-1.51-8.13-3.9-12.08-6.32-3.4-2.02-4.98-2.75-9.04-2.75l-1 13h-1v-23l-3-1z"/><path fill="#ee8e02" d="M287 259h4l.6 2.18 2.71 9.88.94 3.44c1.9 6.93 1.9 6.93 4.48 13.62C301 291 301 291 301 294h-5c-9.39-23.4-9.39-23.4-9-35"/><path fill="#ed9105" d="m342 138-2.78 2.13c-12.15 8.32-12.15 8.32-20.22 19.87h-3l-.69 2.63c-1.26 3.23-2.7 5.16-5 7.71-2.32 2.94-3.73 6.28-5.31 9.66l-4-1v-2h2l.75-2.56c2.36-6.5 5.29-10.72 10.25-15.44l2.38-2.94c2.39-2.95 5.12-5.29 8.07-7.67 1.8-1.5 1.8-1.5 3.55-4.39h3v-3q1.9-1.04 3.81-2.06l2.15-1.16C339 137 339 137 342 138"/><path fill="#e68803" d="M278 72q5.56-.12 11.13-.19l3.17-.07c5.65-.06 9.85-.02 14.7 3.26 2 2 2 2 2.13 4.63L309 82l-2 1-1.12-1.94c-3.59-3.94-9.65-3.21-14.7-3.45l-4.9-.22c-6.07-.29-6.07-.29-8.28-1.39z"/><path fill="#feda5f" d="M319 183c1.12 3.3.9 5.05-.44 8.25l-.87 2.14L317 195h-2l1 5h-2v4h-2l.09 3.55c0 4.04-.64 7.69-1.53 11.64-2.06 9.84-2.3 19.78-2.56 29.81h-1c-.62-32.78-.62-32.78 3-46l.95-3.63c1.74-6.15 3.44-11.76 8.05-16.37"/><path fill="#ed8e02" d="M294 200c1.57 4 .33 6.88-.87 10.88-2.87 10.2-2.96 20.58-3.13 31.12h-1v-5l-4-1a297 297 0 0 1 5-31l.4-2.36.6-1.64z"/><path fill="#e89b15" d="m410 199 12.19-.19 3.81-.08 3.04-.02 3.1-.05c3.32.4 5.2 1.34 7.86 3.34v2h2l1 4c-3.37-1.12-4.53-2.53-7-5a21 21 0 0 0-7.67-1.1l-2.44.01-3.08.03-9.81.06v28h-3z"/><path fill="#fedc65" d="m445 208 2 1c1.6 5.3 1.76 11.73 0 17h-2l-.24 1.86c-.76 2.14-.76 2.14-2.62 3.44-4.94 2.15-7.78 3.01-13.14 1.7a58 58 0 0 0-15 1c-2.31-.44-2.31-.44-4-1v-2h27l1-3 5-5c1.05-3.16 1.31-5.87 1.56-9.19l.26-3.29z"/><path fill="#f5a815" d="M387 175a6364 6364 0 0 1 30.13-.15q5.49-.04 10.98-.05l3.47-.03h3.21l2.84-.01C440 175 440 175 443 177v2l-2.82-.49c-5-.71-10-.67-15.04-.68h-3.1l-6.48-.02-9.93-.03-6.3-.01-3-.02h-5.23c-2.4.13-2.4.13-5.1 2.25z"/><path fill="#eda11d" d="M419 89h1v28l-24 1a69 69 0 0 1 8.13-7.19l2.07-1.54C408 108 408 108 410 107l-1 1.88c-1.14 2.03-1.14 2.03-1 4.12l9 1c.98-2.95 1.1-4.79 1.06-7.85l-.02-2.83-.04-2.94q-.05-2.9-.06-5.8L417.9 92C418 90 418 90 419 89"/><path fill="#df8d08" d="M384 179h2l-1 104h-1l-.65-58.92a13023 13023 0 0 1-.37-34.51l-.04-2.9-.02-2.64-.03-2.3C383 180 383 180 384 179"/><path fill="#ea940d" d="M436 358c-9.58 5.6-21.88 5.07-32.62 5.19l-2.12.04q-2.64-.02-5.26-.23l-2-2c13.88-2.4 27.93-3.11 42-3"/><path fill="#fee8b2" d="M286.44 27.75h2.59A302 302 0 0 1 334 31v1a41 41 0 0 1-16.04-.03c-12.55-2.4-24.92-2.31-37.65-2.16l-6.53.04L258 30v-1c9.47-1.2 18.9-1.24 28.44-1.25"/><path fill="#fde2a4" d="M260 360c-3.27 1.87-6.23 2.5-9.94 3.06-4.56.7-9.06 1.49-13.56 2.5-2.55.45-4.92.51-7.5.44v-2l-1.98.04c-7.06.06-14-.35-21.02-1.04v-1l3.31-.08 17.62-.42c12.96-.27 12.96-.27 25.87-1.3 2.4-.22 4.78-.23 7.2-.2"/><path fill="#fcbb2c" d="m373 126-2.53 1.29A107 107 0 0 0 351 140c-3.74 3-3.74 3-6 3 .81-1.94.81-1.94 2-4l3-1 1.32-2.86c2.04-3.81 3.68-4.66 7.56-6.45l3.11-1.5c4.14-1.64 6.72-2.62 11.01-1.19"/><path fill="#fde3ad" d="M155 355a131 131 0 0 1 18.23 2.46c5.55 1.09 11.17 1.78 16.77 2.54v1a353 353 0 0 1-18 3v-3l-5-1v-2l-1.86-.15-2.45-.23-2.43-.2C158 357 158 357 155 355"/><path fill="#f8ab16" d="M177 223c6.72.99 12.22 4.65 18 8v2l1.94-.75c3.98-.33 6.29.98 9.83 2.7A60 60 0 0 0 215 238c-3.42 1.14-4.24.84-7.56-.25-3.87-1.26-3.87-1.26-7.8-2.34-8.2-2.1-15.3-6.3-22.64-10.41z"/><path fill="#ea8902" d="M256 116h23v2c-3.2 2.14-4 2.24-7.67 2.2l-2.7-.02-2.82-.06-2.85-.02-6.96-.1z"/><path fill="#fcc53b" d="M307 126c-1 2-1 2-2.97 2.67A42 42 0 0 1 287 129l-1-1q-3.78-.35-7.56-.56l-2.16-.13L271 127v-1c12.12-.93 23.88-.93 36 0"/><path fill="#fde5b3" d="m480 340 1 2c-2.27 3.58-4.1 4.55-8 6l-2.69 1.94c-4.23 2.63-8.52 3.8-13.31 5.06v-3l7.56-3.75 2.14-1.05c4.53-2.26 8.93-4.65 13.3-7.2"/><path fill="#fadf95" d="M349 35c13.82 1.08 27.76 6.7 40 13-2.79 1.03-3.87 1.05-6.75.06L380 47v-2l-2.69.13A19 19 0 0 1 369 43v-2l-2.56.13c-3.86-.15-6.78-.96-10.44-2.13v-2l-7-1z"/><path fill="#f8ad1a" d="m303 297 .81 2.19a19 19 0 0 0 2.88 5.5L308 307l-1 2 3 1h-4l-1 3c-1.26-2.9-2-4.8-2-8h-2v-3h-2v-2h-6c3.81-2.54 5.47-3.12 10-3"/><path fill="#fce3af" d="m322 342 2 1c.6 2.65.74 5.3 1 8l3 1-6 1 1-4-2.75.56c-3.02.4-4.45.37-7.25-.56l-4-1a891 891 0 0 1 9.96-4.79z"/><path fill="#f7a913" d="M284 301c-2.87 2.87-6.2 2.94-10.06 3.56l-2.35.4c-8.96 1.47-17.5 2.2-26.59 2.04v-1l3.21-.4 6.28-.8c3.88-.46 3.88-.46 7.51-1.8 3.34-.32 6.68-.51 10.03-.72 4.2-.4 7.56-1.36 11.97-1.28"/><path fill="#fcc137" d="m268.06 137.94 2.94.06v2l33 1v1c-34.9.2-34.9.2-48-1v-1l6.15-.68c2.9-.5 2.5-1.31 5.91-1.38"/><path fill="#fce2aa" d="M129 345a698 698 0 0 1 17.25 5.96L152 353c-3.28 1.1-3.78.92-6.87-.12-3.3-.93-3.78-1.06-7 .56L136 355l-2-1 1-4h-5l1-2-2-1z"/><path fill="#eda92b" d="M143 154c2.18 3.27 3.5 6.38 5 10l-3-1v33c-2-2-2-2-2.23-5.9l.03-5.05.01-2.68.06-8.5q.02-2.87.03-5.75.04-7.05.1-14.12"/><path fill="#fce0a1" d="M301 353c-5.75 3-5.75 3-8 3l-1 4h-4l-1-2c-1.89.3-1.89.3-3.81.63-3.6.58-3.94.54-7.19-1.63q5.12-1.3 10.25-2.56l2.93-.75 2.84-.7 2.6-.64c2.47-.36 4.03-.13 6.38.65"/><path fill="#eea317" d="m277 72 1 4 2 1v8l22 1v1h-25z"/><path fill="#f7ab16" d="M364 310c2.06.44 2.06.44 4 1v4h6l.13 1.88.87 2.12q2.97 1.1 6 2a17 17 0 0 1 3 3l-2 1c-2.16-1-2.16-1-4.62-2.44l-2.48-1.43L373 320v-2l-2.75-.69c-3.7-1.5-5.03-3.06-7.25-6.31z"/><path fill="#f7af1f" d="m196 103 10 4v2l1.9.52A78 78 0 0 1 224 116v2q-3-.98-6-2l-3.62-1.19c-6.57-2.48-14.44-5.9-18.38-11.81"/><path fill="#f4a918" d="M460 191c3 1 3 1 4.69 3.94C466 198 466 198 466 200h2c.76 8.15 1.22 15.89 0 24h-1l-.04-3.52c-.26-9.87-1.43-17.53-5.96-26.48z"/><path fill="#e99d15" d="M277 99c3.4 5.1 2.11 11 2 17h-20v-1l17-1z"/><path fill="#fdc237" d="m284 246 3 1-1 12h-23v-1l20-1q0-2.2-.06-4.37c.05-2.4.38-4.34 1.06-6.63"/><path fill="#fce5b4" d="M114 336h2v2l1.56.25c3.48 1.07 6.31 2.89 9.44 4.75-1 3-1 3-3.06 4.19L122 348l-.69-2.87c-.97-3.33-.97-3.33-3.87-4.25q-1.2-.44-2.44-.88c-.81-2.12-.81-2.12-1-4"/><path fill="#fdca42" d="m259 41 10 3v1l-22 2 1-2c2.5-.63 2.5-.63 5.56-1.12l3.07-.51L259 43z"/><path fill="#f6a915" d="M190 171c4.62.2 8.62.48 12.63 2.94 3.44 2.1 6.5 3 10.37 4.06l2 2c-5.94-.57-10.93-2.32-16.44-4.56l-2.5-1q-3.03-1.2-6.06-2.44z"/><path fill="#ea9209" d="M302 73c2.92 1.07 4.78 1.78 7 4 .13 2.63.13 2.63 0 5l-2 1-1.12-1.94c-2.46-2.7-4.33-2.74-7.88-3.06l2-1.94c2.12-1.7 2.12-1.7 2-3.06"/><path fill="#f9df94" d="M206 41v2c-2.65 1.55-4.83 2.19-7.87 2.88-3.17.72-4.55 1.4-7.38 3.3C188 51 188 51 185.83 50.62L184 50l6.13-3.37 3.44-1.9c4.15-2.1 7.75-3.73 12.43-3.73"/><path fill="#e89c18" d="M436 358c-5.53 3.22-11.66 4.32-18 4v-2l-4-1 7.06-.5 3.98-.28q5.47-.29 10.96-.22"/><path fill="#efab2a" d="M160 355c9.81-.38 18.56 1.55 28 4-3.86 1.37-7.19.75-11.19.19l-2-.29c-5.01-.72-9.9-1.7-14.81-2.9z"/><path fill="#fadf97" d="M528 263h1c-.5 7.49-1.48 17.48-7 23 1.36-7.97 2.83-15.52 6-23"/><path fill="#f8ae1c" d="M286 246h3l1 11-4 1z"/><path fill="#fecc42" d="M368 344c3.73.5 5.81.87 9 3q2.49.58 5 1v2h2v2a64 64 0 0 1-16-7z"/><path fill="#fce0a0" d="m367 357 20 4v1q-3.6.12-7.19.19l-2.04.07c-4.44.07-7.27-.46-10.77-3.26z"/><path fill="#f7ab18" d="M315 282a31 31 0 0 1 5.19 9.25l1.04 2.7.77 2.05h-3c-3.5-4.18-3.67-8.76-4-14"/><path fill="#fdc941" d="M138 251h5v3q-2.93 2.1-6 4a257 257 0 0 0-5 4c.55-3.84 2.28-5.36 5-8z"/><path fill="#fce2aa" d="m275 358-3 2-2.5 2.13C267 364 267 364 264 364v-2l-3-1c4.44-2.96 8.75-3.15 14-3"/><path fill="#fadd8e" d="M132 239v2h-3l-1 3c-3.55 2.64-6.64 3.5-11 4 3.77-4.24 8.98-9 15-9"/><path fill="#f6a711" d="M174 162c4.26.47 6.08.96 9 4 2.3 1.14 4.62 2.06 7 3v2c-5.9-1.55-10.98-4.6-16-8z"/><path fill="#feca40" d="M235 121c7.1 1.02 14.08 2.1 21 4-2.63 1.72-3.87 2.01-7.06 1.75C246 126 246 126 243 124c-2.05-.66-2.05-.66-4.19-1.12L235 122z"/><path fill="#fdda60" d="m394 119 1 2a45 45 0 0 1-10.81 3.13l-2.96.5-2.23.37 1-2h3l1-3z"/><path fill="#e88801" d="M193 74h2a90 90 0 0 1-4.56 8.25l-1.32 2.14L188 86h-1l1-8 3-1 1-2z"/><path fill="#f6ab18" d="M309 262c1.85 3.31 2.75 6.57 3.63 10.25l.78 3.27.59 2.48c-3-1-3-1-4.19-2.94-1.15-4.36-.97-8.57-.81-13.06"/><path fill="#fae097" d="M149 233h-2v2q-2.62 1.05-5.25 2.06l-2.95 1.16c-2.84.8-4.1.8-6.8-.22l6.81-3.06 1.95-.9c4.9-2.15 4.9-2.15 8.24-1.04"/><path fill="#fdc83f" d="m362 115-1.87.88c-2.26 1.06-2.26 1.06-4.13 3.12-3.47 1.16-6.36 1.07-10 1 1-2 1-2 3.87-3.1l3.57-1.09 3.56-1.1c3-.71 3-.71 5 .29"/><path fill="#e69811" d="M384 71c3.73 3.22 5.42 6.34 7 11 .19 3.94.19 3.94 0 7h-1l-.26-1.76c-.77-4.26-1.47-7.36-4.43-10.61L383 74z"/><path fill="#f8db89" d="M309 30c16.7-.18 16.7-.18 25 1v1c-8.64 1.5-16.43.38-25-1z"/><path fill="#fdc53c" d="m415.88 356.94 2.08.3 5.04.76v1c-7.1.1-13.98.1-21-1v-1c4.83-1.08 9.04-.82 13.88-.06"/><path fill="#f9ae1a" d="m156 208 1 2 3 1v2l2.38.31C165 214 165 214 167 217c-3.2 0-4.42-.55-7.19-2l-2.17-1.12L156 213z"/><path fill="#fdc940" d="m268.06 137.94 2.94.06v2l2 1h-17v-1l6.15-.68c2.9-.5 2.5-1.31 5.91-1.38"/><path fill="#e5940e" d="m189 74 2 1v2l-2 1c-.7 3.04-.7 3.04-1.12 6.56l-.51 3.63L187 91c-2-2-2-2-2.37-5.12.45-4.69 2.03-7.87 4.37-11.88"/><path fill="#e6950e" d="M474 164c3.9 1.59 6.34 4.13 9.25 7.13q1.33 1.35 2.7 2.75L488 176l-1 2-3.36-3.36-3.75-3.72-2.2-2.17-2.12-2.08C474 165 474 165 474 164"/><path fill="#eda725" d="m106 326 1.36 1.17 1.83 1.58 1.92 1.66a132 132 0 0 0 4.83 3.84L118 336v2h-2v-2l-1.8-.29c-2.7-.87-3.66-1.98-5.45-4.15l-1.58-1.87C106 328 106 328 106 326"/><path fill="#f4a91b" d="M444 179c3.75-.35 5.57-.27 8.81 1.75 2.25 2.3 2.6 3.22 3.19 6.25l-6-3.44-3.37-1.93L444 180z"/><path fill="#fec940" d="m460 151 10 5v3c-3.78-1.81-7.37-3.9-11-6z"/><path fill="#fadb7d" d="m409 63 3 2v2h2l2 5-6-2c-1-4.75-1-4.75-1-7"/><path fill="#f6d679" d="m258.69 29.94 2.12.01L266 30c-3.65 2.27-7.01 2.39-11.25 2.63l-3.83.22L248 33v-2c3.62-1.2 6.93-1.1 10.69-1.06"/><path fill="#fee4af" d="m192 361 13 1c-3 2-3 2-5 2l-1 2-3-2v-2z"/><path fill="#fce3ad" d="m329 338 2 1-3 8-3-1-1-5c2.38-1.56 2.38-1.56 5-3"/><path fill="#fbe1a4" d="M101 315h1l2 10c-4-1-4-1-5.19-2.94L98 320l-1-2h4z"/><path fill="#fdc73e" d="M299 300c-1 2-1 2-3 3-8.4.4-8.4.4-12-2a80 80 0 0 1 15-1"/><path fill="#fadc82" d="m115 248 3 1c-4.3 5.78-4.3 5.78-7.81 6.88L108 256q1.93-2.55 4-5h2z"/><path fill="#fadd88" d="M452 122c4.39.66 7.98 2.19 12 4v1a193 193 0 0 1-4.87-.25l-2.75-.14c-2.38-.61-2.38-.61-3.7-2.66z"/><path fill="#f9dd91" d="M416 72c3.25 4.1 4.13 6.98 4.06 12.19l-.02 2.73L420 89c-1.83-3.33-2.38-6.23-2.78-10.03A67 67 0 0 0 416 72"/><path fill="#fde1a0" d="m354 351 12 5v2l-4 1-1.19-1.87c-2.09-2.45-3.78-3.15-6.81-4.13z"/><path fill="#fec83e" d="M148 294a307 307 0 0 1 14 5v1c-9.22-.94-9.22-.94-13-3z"/><path fill="#f5a917" d="m342 284 5 5 1.81 1.5c1.7 2.14 1.4 3.85 1.19 6.5a33 33 0 0 1-5.69-7.06l-1.32-2.1C342 286 342 286 342 284"/><path fill="#fdc73e" d="m504 208 3 1 .44 2.25a22 22 0 0 0 1.19 4.69c.51 2.84-.06 5.26-.63 8.06h-1z"/><path fill="#fade8b" d="M154 128c0 3.64-.86 5.1-3 8-2.19.81-2.19.81-4 1 1.56-3.82 4.04-6.2 7-9"/><path fill="#f9dd8f" d="m181 51 2 1c-3.42 3.83-6 5.72-11 7a64 64 0 0 1 9-8"/><path fill="#fdca42" d="M449 147c6.05-.2 6.05-.2 8 0 2 2 2 2 2 5-3.91-1.16-6.87-2.36-10-5"/><path fill="#fce1a9" d="M436 360c-2.81 2.06-2.81 2.06-6 4l-3-1v-3c3.38-.84 5.67-1.1 9 0"/><path fill="#fce1a6" d="M114 336h2v2l1.81.31c2.47.78 3.51 1.76 5.19 3.69-3.28 0-5.1-.48-8-2-.81-2.12-.81-2.12-1-4"/><path fill="#f5a916" d="M331 311c2.96 2.8 5.44 5.18 7 9-3.65-1.25-4.78-1.67-7-5z"/><path fill="#f3a91e" d="m338 335-2 3 4 1v2a37 37 0 0 1-8-4v-2c3.75-1.12 3.75-1.12 6 0"/><path fill="#fed656" d="m108 288 3.38 2.81 1.9 1.58C115 294 115 294 117 297c-4.25-.47-6.3-2.85-9-6z"/><path fill="#e58f0a" d="m412 142-1 2c-4.57 1.2-8.38.83-13 0v-1c4.76-.95 9.17-1.08 14-1"/><path fill="#f9df93" d="M473 132c4.43 1.4 6.87 3.6 10 7a85 85 0 0 1-7-2v-3h-3z"/><path fill="#f7ae1a" d="M315 63c5 .48 7.98 2.03 12 5l-1 3-3.81-2.87-2.15-1.62A129 129 0 0 0 315 63"/><path fill="#f9df94" d="M521 287c1 3 1 3 .22 5.04l-1.16 2.15-1.15 2.17L518 298h-1c-.57-4.81 1.17-7.2 4-11"/><path fill="#fbe3a1" d="M527 208c2.19 3.28 2.35 4.83 2.63 8.69l.22 3L530 222l-2-1c-.41-1.93-.41-1.93-.62-4.31l-.23-2.37c-.14-2.1-.15-4.21-.15-6.32"/><path fill="#fabb32" d="m156 213 3.88 1.31 2.17.74C164 216 164 216 166 219l-2.19-1c-2.83-1-4.84-1.17-7.81-1z"/><path fill="#f7d46a" d="M470 346a41 41 0 0 1-10 6l-3-1c8.26-5.74 8.26-5.74 13-5"/><path fill="#feca42" d="M400 332q2.4.17 4.81.38l2.71.2C410 333 410 333 413 335c-4.98 1.71-8.43 0-13-2z"/><path fill="#fcc137" d="M373 126c-5.27 3.22-5.27 3.22-7 4-2-1-2-1-3-3 6.63-2.12 6.63-2.12 10-1"/><path fill="#fce1a4" d="M389 362c6.63-.25 6.63-.25 10 2-3.31.69-3.31.69-7 1-1.94-1.44-1.94-1.44-3-3"/><path fill="#fde3a9" d="m309 349-2 4h-5l-1-2c5.75-2 5.75-2 8-2"/><path fill="#efa721" d="M309 348c-2.52 2.52-4.58 3.11-8 4-2.37-.37-2.37-.37-4-1h3v-2c3.2-1.07 5.66-1.07 9-1"/><path fill="#fbe1a9" d="m104 325 4 4-2 1-1 3-3-1 2-3z"/><path fill="#f7b124" d="M187 229c2.76.52 5.33 1.1 8 2v2l2 1a21.6 21.6 0 0 1-10-4z"/><path fill="#fde3a9" d="m129 345 6 2-1 3-4-1 1-1-2-1z"/><path fill="#f1aa1f" d="M385 326c6.4-.5 6.4-.5 9.44 2l1.56 2a70 70 0 0 1-11-3z"/><path fill="#fdca40" d="m285 315 8 1v1l-10 1z"/><path fill="#fdc53c" d="M178 226c3.67.7 6.7 2.28 10 4v1c-2.75.31-2.75.31-6 0-2.37-2.5-2.37-2.5-4-5"/><path fill="#fdc73e" d="M235 197v2l-11-1v-1c4.02-.84 7.02-1.05 11 0"/><path fill="#fecd47" d="M328 162c0 2.95-.44 4.5-1.5 7.19l-.84 2.17L325 173l-2-1c1.16-3.91 2.36-6.87 5-10"/><path fill="#fadb81" d="M172 59c-1.15 2.47-2.05 4.05-4 6h-3v-2c4.47-4 4.47-4 7-4"/><path fill="#fec93f" d="m218.63 193.88 2.37.12 1 3-8-1c2-2 2-2 4.63-2.12"/><path fill="#eb8d03" d="m304 173 2 4-2 3-3-1v-2h2z"/></svg>